<?xml version="1.0" encoding="UTF-8"?>
<svg version="1.1" xmlns="http://www.w3.org/2000/svg" width="256" height="256">
<path d="M0 0 C10.82609635 9.4420304 20.96298588 19.4188135 28.25390625 31.88671875 C28.66334473 32.58104004 29.0727832 33.27536133 29.49462891 33.99072266 C46.54439485 63.39410208 52.02110896 97.38568589 43.5859375 130.50976562 C35.03273185 161.12481125 16.08220589 189.61342242 -11.74609375 205.88671875 C-12.44041504 206.29615723 -13.13473633 206.7055957 -13.85009766 207.12744141 C-43.25347708 224.17720735 -77.24506089 229.65392146 -110.36914062 221.21875 C-140.98418625 212.66554435 -169.47279742 193.71501839 -185.74609375 165.88671875 C-186.15553223 165.19239746 -186.5649707 164.49807617 -186.98681641 163.78271484 C-204.03658235 134.37933542 -209.51329646 100.38775161 -201.078125 67.26367188 C-192.52491935 36.64862625 -173.57439339 8.16001508 -145.74609375 -8.11328125 C-144.70461182 -8.72743896 -144.70461182 -8.72743896 -143.64208984 -9.35400391 C-98.79779759 -35.35729678 -40.92375191 -33.29301401 0 0 Z " fill="#000001" transform="translate(206.74609375,29.11328125)"/>
<path d="M0 0 C0.8910997 -0.00630432 1.7821994 -0.01260864 2.70030212 -0.019104 C4.14718163 -0.01303131 4.14718163 -0.01303131 5.62329102 -0.00683594 C7.10660667 -0.00970612 7.10660667 -0.00970612 8.61988831 -0.01263428 C10.71387994 -0.01399691 12.80788 -0.01029502 14.90185547 -0.00195312 C18.11062593 0.00873387 21.31883506 -0.00184003 24.52758789 -0.01464844 C26.55949017 -0.01332663 28.5913921 -0.01076381 30.62329102 -0.00683594 C32.06713417 -0.01290863 32.06713417 -0.01290863 33.54014587 -0.019104 C34.43439774 -0.01279968 35.3286496 -0.00649536 36.25 0 C37.03672592 0.00159119 37.82345184 0.00318237 38.63401794 0.00482178 C40.68969727 0.25878906 40.68969727 0.25878906 43.68969727 2.25878906 C44.05884075 4.09785652 44.05884075 4.09785652 44.05046082 6.37161255 C44.05458481 7.23260559 44.0587088 8.09359863 44.06295776 8.98068237 C44.05217194 9.92726715 44.04138611 10.87385193 44.03027344 11.84912109 C44.03093056 13.34185547 44.03093056 13.34185547 44.03160095 14.86474609 C44.0295051 18.16556177 44.00613626 21.46587424 43.98266602 24.76660156 C43.9770729 27.05060549 43.97280146 29.33461302 43.96980286 31.61862183 C43.95833171 37.63899622 43.92884492 43.65915452 43.89569092 49.67944336 C43.86503895 55.81914344 43.85130795 61.95887833 43.83618164 68.09863281 C43.80397747 80.15211333 43.75275368 92.20543325 43.68969727 104.25878906 C42.5676643 103.30237981 41.44638494 102.34508639 40.32542419 101.38742065 C39.70093101 100.85442289 39.07643782 100.32142513 38.43302059 99.77227592 C36.45068207 98.05128518 34.57278247 96.25588387 32.72485352 94.39160156 C32.0706543 93.73417969 31.41645508 93.07675781 30.74243164 92.39941406 C30.0856543 91.73425781 29.42887695 91.06910156 28.75219727 90.38378906 C28.06834961 89.69542969 27.38450195 89.00707031 26.67993164 88.29785156 C25.01418262 86.62045395 23.35083507 84.94075116 21.68969727 83.25878906 C17.66229785 85.10638274 14.97608477 87.78591815 11.93969727 90.94628906 C7.85387481 95.12778505 3.71884932 99.12069464 -0.78686523 102.85644531 C-2.56100119 104.3786301 -2.56100119 104.3786301 -4.31030273 107.25878906 C-4.97030273 107.25878906 -5.63030273 107.25878906 -6.31030273 107.25878906 C-6.35656352 93.60304511 -6.39214002 79.94731968 -6.41392708 66.29151344 C-6.42438169 59.95115016 -6.43857142 53.61084033 -6.46118164 47.27050781 C-6.48285028 41.15621792 -6.49485871 35.04197958 -6.50005722 28.92765427 C-6.50376375 26.59036828 -6.51100125 24.25308523 -6.52176285 21.91582108 C-6.53619829 18.65198839 -6.53828402 15.38837099 -6.53735352 12.12451172 C-6.54454407 11.14987473 -6.55173462 10.17523773 -6.55914307 9.17106628 C-6.55639374 8.28483078 -6.55364441 7.39859528 -6.55081177 6.48550415 C-6.55265535 5.71304163 -6.55449894 4.94057911 -6.55639839 4.14470863 C-6.02460353 0.06937324 -3.48906135 0.00706392 0 0 Z " fill="#9E58F0" transform="translate(109.310302734375,52.7412109375)"/>
<path d="M0 0 C0.8910997 -0.00630432 1.7821994 -0.01260864 2.70030212 -0.019104 C4.14718163 -0.01303131 4.14718163 -0.01303131 5.62329102 -0.00683594 C7.10660667 -0.00970612 7.10660667 -0.00970612 8.61988831 -0.01263428 C10.71387994 -0.01399691 12.80788 -0.01029502 14.90185547 -0.00195312 C18.11062593 0.00873387 21.31883506 -0.00184003 24.52758789 -0.01464844 C26.55949017 -0.01332663 28.5913921 -0.01076381 30.62329102 -0.00683594 C32.06713417 -0.01290863 32.06713417 -0.01290863 33.54014587 -0.019104 C34.43439774 -0.01279968 35.3286496 -0.00649536 36.25 0 C37.03672592 0.00159119 37.82345184 0.00318237 38.63401794 0.00482178 C40.68969727 0.25878906 40.68969727 0.25878906 43.68969727 2.25878906 C44.1244812 5.12071228 44.1244812 5.12071228 44.20483398 8.82885742 C44.22294128 9.50398376 44.24104858 10.17911011 44.25970459 10.87469482 C44.31385694 13.11604621 44.34394327 15.35678059 44.36938477 17.59863281 C44.38585241 18.750255 44.38585241 18.750255 44.40265274 19.92514229 C44.45942284 23.99672104 44.49721131 28.06798922 44.52026367 32.13989258 C44.54774284 36.32420148 44.64033242 40.50433063 44.74857903 44.68721676 C44.81996758 47.92092594 44.84148365 51.15366523 44.85016251 54.38809395 C44.86283911 55.92832379 44.89385393 57.4685268 44.94442368 59.00797844 C45.17249347 66.43691391 45.0624266 72.57874108 39.86706734 78.36166477 C37.59250382 80.62406226 35.41275789 82.551783 32.68969727 84.25878906 C28.59727594 84.08207792 26.81594186 81.60340885 24.12719727 78.69628906 C21.9060792 76.22423715 21.9060792 76.22423715 19.68969727 74.25878906 C16.74789209 73.9155086 16.74789209 73.9155086 15.35766602 75.51660156 C14.86911133 76.13277344 14.38055664 76.74894531 13.87719727 77.38378906 C10.24507079 81.72042283 6.36087584 85.74822459 2.37719727 89.75878906 C1.75417725 90.39445801 1.13115723 91.03012695 0.48925781 91.68505859 C-0.39572388 92.57233643 -0.39572388 92.57233643 -1.29858398 93.47753906 C-1.83008057 94.01314453 -2.36157715 94.54875 -2.90917969 95.10058594 C-4.31030273 96.25878906 -4.31030273 96.25878906 -6.31030273 96.25878906 C-6.35656816 84.03726873 -6.39214238 71.8157691 -6.41392708 59.59417915 C-6.42438068 53.91968832 -6.43856856 48.24525723 -6.46118164 42.57080078 C-6.4828539 37.09841191 -6.49485947 31.62608065 -6.50005722 26.15365219 C-6.5037631 24.06198087 -6.51099937 21.97031283 -6.52176285 19.87866592 C-6.53620314 16.95728907 -6.53828382 14.03615268 -6.53735352 11.11474609 C-6.54454407 10.24296722 -6.55173462 9.37118835 -6.55914307 8.47299194 C-6.53866966 2.56270104 -6.25225833 0.01265826 0 0 Z " fill="#757DEB" transform="translate(44.310302734375,102.7412109375)"/>
<path d="M0 0 C0.66 0 1.32 0 2 0 C2.06943244 12.07384494 2.12277691 24.14764258 2.15543652 36.22164631 C2.17110947 41.82776745 2.19237755 47.43375226 2.22631836 53.03979492 C2.25885356 58.44735751 2.27684073 63.85478875 2.28463173 69.26244164 C2.29018574 71.32817847 2.30103101 73.39390791 2.31719017 75.459589 C2.33888675 78.34732365 2.34197018 81.23451175 2.34057617 84.12231445 C2.351362 84.98114731 2.36214783 85.83998016 2.3732605 86.72483826 C2.34257782 92.57747432 2.34257782 92.57747432 0.60593224 94.71940327 C-1.50353845 96.40152983 -2.76010293 96.3800542 -5.43969727 96.38818359 C-6.33394913 96.39764008 -7.22820099 96.40709656 -8.14955139 96.4168396 C-9.59339455 96.40773056 -9.59339455 96.40773056 -11.06640625 96.3984375 C-12.05624008 96.40130768 -13.04607391 96.40417786 -14.06590271 96.40713501 C-16.15811739 96.40917657 -18.25035112 96.40364033 -20.3425293 96.39111328 C-23.55365415 96.37504427 -26.76352349 96.39096796 -29.97460938 96.41015625 C-32.00521112 96.40817417 -34.03581209 96.40433122 -36.06640625 96.3984375 C-37.03099258 96.40451019 -37.99557892 96.41058289 -38.98939514 96.4168396 C-40.32604469 96.40265488 -40.32604469 96.40265488 -41.68969727 96.38818359 C-42.47562759 96.38579681 -43.26155792 96.38341003 -44.07130432 96.38095093 C-44.7077739 96.25523712 -45.34424347 96.12952332 -46 96 C-48.06103751 92.90844374 -48.26216803 92.15563953 -48.33813477 88.63964844 C-48.36057755 87.76153503 -48.38302032 86.88342163 -48.40614319 85.97869873 C-48.41778 85.0318219 -48.42941681 84.08494507 -48.44140625 83.109375 C-48.45517807 82.13139954 -48.46894989 81.15342407 -48.48313904 80.14581299 C-48.50642047 78.07464255 -48.52368108 76.00339704 -48.53540039 73.93212891 C-48.56228742 70.77496163 -48.63717641 67.62116476 -48.71289062 64.46484375 C-48.72955189 62.45054334 -48.74331696 60.43621648 -48.75390625 58.421875 C-48.78376114 57.48309509 -48.81361603 56.54431519 -48.84437561 55.5770874 C-48.81212709 50.73043934 -48.41067138 47.82133335 -44.95288086 44.28613281 C-43.65635829 43.16585512 -42.33772893 42.07073535 -41 41 C-39.67868372 39.85014998 -38.36092134 38.69620413 -37.04663086 37.53833008 C-36.37638885 36.95943024 -35.70614685 36.3805304 -35.01559448 35.78408813 C-31.62849941 32.78602668 -28.4465024 29.58917336 -25.25390625 26.38671875 C-24.55732407 25.69109329 -23.86074188 24.99546783 -23.14305115 24.27876282 C-21.68732001 22.82370654 -20.2328282 21.36740937 -18.77954102 19.90991211 C-16.54752732 17.67249105 -14.31015865 15.44052323 -12.07226562 13.20898438 C-10.65332466 11.78938346 -9.23469346 10.36947283 -7.81640625 8.94921875 C-7.14670303 8.28153976 -6.47699982 7.61386078 -5.78700256 6.9259491 C-4.86485207 5.99907036 -4.86485207 5.99907036 -3.92407227 5.0534668 C-3.1108828 4.23908394 -3.1108828 4.23908394 -2.28126526 3.4082489 C-0.89110607 2.00815736 -0.89110607 2.00815736 0 0 Z " fill="#608FE8" transform="translate(216,107)"/>
<path d="M0 0 C9.06636029 4.49335552 18.71546429 12.53798136 22.9453125 21.96411133 C24.73038364 28.70548933 24.64160311 35.66536308 24.4453125 42.58911133 C24.40923889 43.91341156 24.40923889 43.91341156 24.37243652 45.26446533 C23.84299816 59.75742008 23.84299816 59.75742008 21.68067932 62.6640625 C19.47821825 64.31403465 18.24119221 64.34399569 15.50561523 64.35229492 C14.61136337 64.3617514 13.71711151 64.37120789 12.79576111 64.38095093 C11.35191795 64.37184189 11.35191795 64.37184189 9.87890625 64.36254883 C8.88907242 64.36541901 7.89923859 64.36828918 6.87940979 64.37124634 C4.78719511 64.3732879 2.69496138 64.36775166 0.6027832 64.35522461 C-2.60834165 64.33915559 -5.81821099 64.35507929 -9.02929688 64.37426758 C-11.05989862 64.3722855 -13.09049959 64.36844255 -15.12109375 64.36254883 C-16.08568008 64.36862152 -17.05026642 64.37469421 -18.04408264 64.38095093 C-19.38073219 64.3667662 -19.38073219 64.3667662 -20.74438477 64.35229492 C-21.53031509 64.34990814 -22.31624542 64.34752136 -23.12599182 64.34506226 C-23.7624614 64.21934845 -24.39893097 64.09363464 -25.0546875 63.96411133 C-30.7001941 55.49585143 -29.55959741 39.43293774 -28.25341797 29.63745117 C-26.58272082 21.37371276 -20.80716401 15.70117475 -14.8046875 10.15161133 C-14.22399506 9.61292419 -13.64330261 9.07423706 -13.04501343 8.51922607 C-3.55924073 -0.0621683 -3.55924073 -0.0621683 0 0 Z " fill="#5896E6" transform="translate(130.0546875,139.035888671875)"/>
<path d="M0 0 C0.79497894 0.00444122 1.58995789 0.00888245 2.4090271 0.01345825 C3.76020126 0.01368484 3.76020126 0.01368484 5.13867188 0.01391602 C6.11266937 0.02423859 7.08666687 0.03456116 8.09017944 0.04519653 C9.08617157 0.04802643 10.0821637 0.05085632 11.1083374 0.05377197 C14.29771813 0.06499063 17.48682072 0.09009822 20.67611694 0.11550903 C22.83496706 0.12553666 24.99382157 0.13466288 27.15267944 0.14285278 C32.45225393 0.16493543 37.75166557 0.19842945 43.05111694 0.24050903 C43.05111694 3.24050903 43.05111694 3.24050903 41.31150818 5.34761047 C40.0902549 6.56339531 40.0902549 6.56339531 38.84432983 7.80374146 C37.46773949 9.18483345 37.46773949 9.18483345 36.06333923 10.59382629 C35.05038273 11.59477847 34.03718833 12.59548995 33.02377319 13.59597778 C31.99425586 14.62243846 30.96532741 15.64949008 29.93696594 16.67710876 C27.78007704 18.82939263 25.61836622 20.97666791 23.45272827 23.12014771 C20.6703313 25.87422667 17.89671843 28.63694279 15.12621403 31.40297985 C13.00182968 33.52321724 10.8746284 35.6406077 8.7463665 37.75695229 C7.72238564 38.77521801 6.69888361 39.79396548 5.67585945 40.81319237 C4.24896004 42.23325335 2.81822777 43.64945993 1.38729858 45.06546021 C0.57233414 45.87359665 -0.24263031 46.68173309 -1.08229065 47.51435852 C-2.94888306 49.24050903 -2.94888306 49.24050903 -3.94888306 49.24050903 C-3.99947466 42.5836409 -4.03457065 35.92682209 -4.05874634 29.26980591 C-4.06882165 27.00383654 -4.08248224 24.73788023 -4.09976196 22.47195435 C-4.12394316 19.22029403 -4.13535069 15.96880516 -4.14419556 12.71707153 C-4.15451813 11.69932648 -4.1648407 10.68158142 -4.17547607 9.63299561 C-4.17562714 8.69217133 -4.1757782 7.75134705 -4.17593384 6.78201294 C-4.18037506 5.95150421 -4.18481628 5.12099548 -4.18939209 4.26531982 C-3.85068314 1.4137781 -2.86725728 0.35384436 0 0 Z " fill="#8D65EB" transform="translate(171.94888305664063,102.75949096679688)"/>
<path d="M0 0 C3.63303084 1.69586126 5.94549046 3.73800488 8.75 6.625 C9.54921875 7.44226563 10.3484375 8.25953125 11.171875 9.1015625 C11.77515625 9.72804687 12.3784375 10.35453125 13 11 C16.45084966 9.52660352 18.60725096 7.57627385 21.1875 4.875 C22.44175237 3.56722665 23.70840483 2.270906 25 1 C25.33 1 25.66 1 26 1 C26.08706892 4.27066566 26.14041241 7.54103365 26.1875 10.8125 C26.21263672 11.74126953 26.23777344 12.67003906 26.26367188 13.62695312 C26.27333984 14.51962891 26.28300781 15.41230469 26.29296875 16.33203125 C26.3086792 17.15421143 26.32438965 17.9763916 26.34057617 18.82348633 C25.90952233 21.57821391 25.1700116 22.2902665 23 24 C20.93086243 24.36076355 20.93086243 24.36076355 18.52856445 24.34057617 C17.62785721 24.34034958 16.72714996 24.34012299 15.79914856 24.33988953 C14.34589424 24.31666374 14.34589424 24.31666374 12.86328125 24.29296875 C11.37141548 24.28660149 11.37141548 24.28660149 9.84941101 24.28010559 C6.67016625 24.26330153 3.49155344 24.22564576 0.3125 24.1875 C-1.84178773 24.17245541 -3.99608538 24.15876662 -6.15039062 24.14648438 C-11.43380967 24.11339244 -16.71685969 24.06317592 -22 24 C-20.30145963 20.37916872 -18.28895218 18.05744646 -15.4296875 15.234375 C-14.08583984 13.90019531 -14.08583984 13.90019531 -12.71484375 12.5390625 C-11.77769531 11.61867187 -10.84054688 10.69828125 -9.875 9.75 C-8.92011363 8.80515144 -7.96568141 7.85984367 -7.01171875 6.9140625 C-4.67890913 4.60481662 -2.34155914 2.30036797 0 0 Z " fill="#4B9CDE" transform="translate(62,179)"/>
<path d="M0 0 C0.33 0 0.66 0 1 0 C1 34.32 1 68.64 1 104 C1.66 104 2.32 104 3 104 C3.25072266 103.41879395 3.50144531 102.83758789 3.75976562 102.23876953 C5.16294123 99.70587183 6.7195282 98.14245652 8.84375 96.1796875 C9.59527344 95.47972656 10.34679687 94.77976562 11.12109375 94.05859375 C11.90613281 93.33800781 12.69117187 92.61742187 13.5 91.875 C15.05216222 90.43498086 16.60424907 88.99488047 18.15625 87.5546875 C18.84525391 86.92030762 19.53425781 86.28592773 20.24414062 85.63232422 C21.51973162 84.44647865 22.76846395 83.23153605 24 82 C26.625 81.875 26.625 81.875 29 82 C28.27240479 82.56098389 27.54480957 83.12196777 26.79516602 83.69995117 C24.08455334 85.93042388 21.70019681 88.26372464 19.27734375 90.80078125 C17.97506836 92.14172852 17.97506836 92.14172852 16.64648438 93.50976562 C14.82883272 95.39032087 13.01900582 97.27846839 11.21679688 99.17382812 C10.34990234 100.06134766 9.48300781 100.94886719 8.58984375 101.86328125 C7.80472412 102.68094971 7.01960449 103.49861816 6.21069336 104.34106445 C5.48116455 104.88851318 4.75163574 105.43596191 4 106 C2.68 105.67 1.36 105.34 0 105 C0 70.35 0 35.7 0 0 Z " fill="#131022" transform="translate(102,56)"/>
<path d="M0 0 C0.66 0 1.32 0 2 0 C2 11.88 2 23.76 2 36 C1.67 36 1.34 36 1 36 C0.67 25.44 0.34 14.88 0 4 C-15.18 19.18 -30.36 34.36 -46 50 C-46.495 48.515 -46.495 48.515 -47 47 C-46.10925781 46.18144531 -45.21851563 45.36289063 -44.30078125 44.51953125 C-34.1458897 35.10774504 -24.29586481 25.40764562 -14.5 15.625 C-13.84077545 14.96827301 -13.1815509 14.31154602 -12.50234985 13.63491821 C-10.61323883 11.75168375 -8.72784176 9.86481709 -6.84375 7.9765625 C-6.2684404 7.40323685 -5.6931308 6.82991119 -5.10038757 6.23921204 C-2.19304665 3.38993021 -2.19304665 3.38993021 0 0 Z " fill="#7668D7" transform="translate(216,107)"/>
<path d="M0 0 C4.04894052 0.52571665 5.81930975 2.53649508 8.5625 5.4375 C10.99836547 7.99659643 13.04978421 10.03318947 16 12 C14.296875 12.77734375 14.296875 12.77734375 12 13 C9.640625 11.12890625 9.640625 11.12890625 7.25 8.5625 C6.45078125 7.71816406 5.6515625 6.87382812 4.828125 6.00390625 C4.22484375 5.34261719 3.6215625 4.68132812 3 4 C-0.56764285 5.51376081 -2.83706287 7.60513129 -5.546875 10.3515625 C-6.39121094 11.20234375 -7.23554687 12.053125 -8.10546875 12.9296875 C-9.41451172 14.26386719 -9.41451172 14.26386719 -10.75 15.625 C-11.63816406 16.5221875 -12.52632812 17.419375 -13.44140625 18.34375 C-15.63216969 20.55807004 -17.81812763 22.77692435 -20 25 C-20.99 24.34 -21.98 23.68 -23 23 C-22.57332031 22.64550781 -22.14664063 22.29101562 -21.70703125 21.92578125 C-16.97705082 17.89798348 -12.52286129 13.63322412 -8.125 9.25 C-7.55370361 8.68321533 -6.98240723 8.11643066 -6.39379883 7.5324707 C-3.98881963 5.11887794 -1.89569211 2.84353816 0 0 Z " fill="#070E15" transform="translate(61,176)"/>
<path d="M0 0 C0.99 0.33 1.98 0.66 3 1 C-1.38442526 6.25174926 -6.00842093 11.13222473 -10.875 15.9375 C-11.56335938 16.62134766 -12.25171875 17.30519531 -12.9609375 18.00976562 C-14.63833511 19.67551464 -16.31803791 21.3388622 -18 23 C-18.66 22.01 -19.32 21.02 -20 20 C-13.4 13.4 -6.8 6.8 0 0 Z " fill="#17162C" transform="translate(195,125)"/>
<path d="M0 0 C0.79497894 0.00444122 1.58995789 0.00888245 2.4090271 0.01345825 C3.76020126 0.01368484 3.76020126 0.01368484 5.13867188 0.01391602 C6.11266937 0.02423859 7.08666687 0.03456116 8.09017944 0.04519653 C9.08617157 0.04802643 10.0821637 0.05085632 11.1083374 0.05377197 C14.29771813 0.06499063 17.48682072 0.09009822 20.67611694 0.11550903 C22.83496706 0.12553666 24.99382157 0.13466288 27.15267944 0.14285278 C32.45225393 0.16493543 37.75166557 0.19842945 43.05111694 0.24050903 C43.05111694 0.57050903 43.05111694 0.90050903 43.05111694 1.24050903 C41.75899292 1.26032837 40.4668689 1.28014771 39.1355896 1.30056763 C34.35332349 1.37649272 29.57136689 1.46522981 24.78939819 1.55789185 C22.71752013 1.59623589 20.64557426 1.63107908 18.57357788 1.66238403 C15.59969807 1.70791712 12.62628732 1.76593021 9.65267944 1.82644653 C8.25730453 1.84377335 8.25730453 1.84377335 6.83374023 1.8614502 C5.54262833 1.89125473 5.54262833 1.89125473 4.22543335 1.92166138 C3.08625961 1.94164688 3.08625961 1.94164688 1.92407227 1.96203613 C-0.19200566 2.08667956 -0.19200566 2.08667956 -1.94888306 4.24050903 C-2.32234974 7.44589306 -2.32234974 7.44589306 -2.36294556 11.21707153 C-2.38231171 11.90231903 -2.40167786 12.58756653 -2.42163086 13.2935791 C-2.48145136 15.48409547 -2.52782062 17.67466433 -2.57388306 19.86550903 C-2.61206069 21.34990706 -2.6511123 22.83428288 -2.69107056 24.31863403 C-2.7871539 27.95905589 -2.87117588 31.59964339 -2.94888306 35.24050903 C-3.27888306 35.24050903 -3.60888306 35.24050903 -3.94888306 35.24050903 C-3.99825585 30.57743889 -4.03458933 25.91452031 -4.05874634 21.25125122 C-4.06881494 19.66431021 -4.08247073 18.07738779 -4.09976196 16.49050903 C-4.12397307 14.21181656 -4.13535728 11.93336898 -4.14419556 9.65457153 C-4.15451813 8.94305939 -4.1648407 8.23154724 -4.17547607 7.49847412 C-4.17587727 5.74419238 -4.07090514 3.99054195 -3.94888306 2.24050903 C-1.94888306 0.24050903 -1.94888306 0.24050903 0 0 Z " fill="#7F4FCA" transform="translate(41.948883056640625,102.75949096679688)"/>
<path d="M0 0 C0.33 0 0.66 0 1 0 C1 19.14 1 38.28 1 58 C1.99 58.33 2.98 58.66 4 59 C2.68 59.66 1.36 60.32 0 61 C0 40.87 0 20.74 0 0 Z " fill="#4D7BC2" transform="translate(38,138)"/>
<path d="M0 0 C-0.639375 0.474375 -1.27875 0.94875 -1.9375 1.4375 C-5.54898555 4.45935526 -8.75336418 7.77661477 -12.01171875 11.171875 C-14 13 -14 13 -16 13 C-14.47493019 9.44422227 -12.37527213 7.01456562 -9.6875 4.25 C-8.92824219 3.45078125 -8.16898437 2.6515625 -7.38671875 1.828125 C-4.64079849 -0.27513307 -3.37275956 -0.40592504 0 0 Z " fill="#0E0E1B" transform="translate(131,138)"/>
<path d="M0 0 C-1.28519565 2.86697492 -2.57129254 4.97607712 -5 7 C-5.66 7 -6.32 7 -7 7 C-3.86206897 0 -3.86206897 0 0 0 Z " fill="#080911" transform="translate(122,144)"/>
<path d="M0 0 C-1.39332574 3.36720387 -2.9789286 4.9859524 -6 7 C-6 4 -6 4 -4.125 1.8125 C-2 0 -2 0 0 0 Z " fill="#090A13" transform="translate(176,146)"/>
</svg>
